<?xml version="1.0" encoding="utf-8"?>
<svg width="176" height="41" viewBox="0 0 176 41" fill="none" xmlns="http://www.w3.org/2000/svg" xmlns:bx="https://boxy-svg.com"><defs><bx:export><bx:file format="svg" href="#object-0"/><bx:file format="svg" path="Untitled 2.svg"/></bx:export></defs><path d="M29.0942 12.6927L13.9961 38.7815C12.4662 41.4253 9.07781 40.6809 8.18326 37.4948L0.645529 10.6982C0.439379 10.1324 0.358561 9.5206 0.409781 8.91337C0.461005 8.30629 0.642787 7.72133 0.940046 7.20713C1.23731 6.69307 1.64147 6.26445 2.11899 5.95713C2.59651 5.64982 3.13361 5.47245 3.68573 5.43985L26.3204 6.15192C29.007 6.23625 30.6241 10.0489 29.0942 12.6927Z" fill="#1DACE3"/><path d="M33.2876 20.6126L7.17705 36.6621C6.57972 37.029 5.90209 37.2068 5.21893 37.176C4.53577 37.1451 3.8736 36.9068 3.30546 36.4873C2.73732 36.0677 2.28527 35.4833 1.99915 34.7985C1.71304 34.1136 1.60399 33.3549 1.68404 32.606L4.67177 4.65488C4.74057 4.01144 4.94689 3.39511 5.27375 2.85657C5.60063 2.31818 6.03872 1.87302 6.55201 1.55761C7.06529 1.24234 7.63911 1.06579 8.22629 1.04275C8.81346 1.01972 9.39723 1.1507 9.92957 1.42483L33.0526 13.3336C33.6705 13.6535 34.1965 14.1551 34.5726 14.7832C34.9489 15.4114 35.1607 16.1416 35.185 16.894C35.2093 17.6463 35.0451 18.3914 34.7104 19.0475C34.3756 19.7036 33.8833 20.2451 33.2876 20.6126Z" fill="#FB6908"/><path d="M4.58366 5.47257L3.09422 19.406L7.83511 36.2538L19.6607 28.9874L29.0942 12.6927C29.2999 12.3333 29.4537 11.9408 29.55 11.5293L18.6436 5.91216L4.58366 5.47257Z" fill="#001A49"/><path d="M 80.409 29.024 C 78.887 29.024 77.514 28.71 76.29 28.08 C 75.066 27.451 74.104 26.576 73.404 25.457 C 72.722 24.338 72.381 23.07 72.381 21.653 C 72.381 20.254 72.722 18.995 73.404 17.875 C 74.104 16.756 75.057 15.891 76.264 15.278 C 77.488 14.649 78.87 14.334 80.409 14.334 C 81.948 14.334 83.329 14.649 84.553 15.278 C 85.778 15.891 86.731 16.756 87.413 17.875 C 88.095 18.977 88.436 20.236 88.436 21.653 C 88.436 23.07 88.095 24.338 87.413 25.457 C 86.731 26.576 85.778 27.451 84.553 28.08 C 83.329 28.71 81.948 29.024 80.409 29.024 Z M 80.409 25.063 C 81.283 25.063 82 24.766 82.56 24.171 C 83.119 23.559 83.399 22.72 83.399 21.653 C 83.399 20.604 83.119 19.782 82.56 19.187 C 82 18.593 81.283 18.295 80.409 18.295 C 79.534 18.295 78.817 18.593 78.257 19.187 C 77.698 19.782 77.418 20.604 77.418 21.653 C 77.418 22.72 77.698 23.559 78.257 24.171 C 78.817 24.766 79.534 25.063 80.409 25.063 Z M 97.88 29.024 C 96.359 29.024 94.986 28.71 93.762 28.08 C 92.537 27.451 91.575 26.576 90.876 25.457 C 90.194 24.338 89.853 23.07 89.853 21.653 C 89.853 20.254 90.194 18.995 90.876 17.875 C 91.575 16.756 92.529 15.891 93.735 15.278 C 94.959 14.649 96.341 14.334 97.88 14.334 C 99.419 14.334 100.801 14.649 102.025 15.278 C 103.249 15.891 104.202 16.756 104.884 17.875 C 105.566 18.977 105.907 20.236 105.907 21.653 C 105.907 23.07 105.566 24.338 104.884 25.457 C 104.202 26.576 103.249 27.451 102.025 28.08 C 100.801 28.71 99.419 29.024 97.88 29.024 Z M 97.88 25.063 C 98.755 25.063 99.472 24.766 100.031 24.171 C 100.591 23.559 100.871 22.72 100.871 21.653 C 100.871 20.604 100.591 19.782 100.031 19.187 C 99.472 18.593 98.755 18.295 97.88 18.295 C 97.006 18.295 96.289 18.593 95.729 19.187 C 95.169 19.782 94.89 20.604 94.89 21.653 C 94.89 22.72 95.169 23.559 95.729 24.171 C 96.289 24.766 97.006 25.063 97.88 25.063 Z M 117.476 14.334 C 119.243 14.334 120.659 14.859 121.726 15.908 C 122.81 16.957 123.353 18.54 123.353 20.656 L 123.353 28.788 L 118.368 28.788 L 118.368 21.469 C 118.368 19.528 117.59 18.558 116.034 18.558 C 115.177 18.558 114.486 18.837 113.961 19.397 C 113.454 19.957 113.2 20.796 113.2 21.915 L 113.2 28.788 L 108.216 28.788 L 108.216 14.57 L 112.964 14.57 L 112.964 16.118 C 113.524 15.541 114.189 15.104 114.958 14.806 C 115.728 14.491 116.567 14.334 117.476 14.334 Z M 136.293 28.211 C 135.873 28.474 135.357 28.675 134.745 28.815 C 134.151 28.955 133.512 29.024 132.83 29.024 C 130.977 29.024 129.551 28.57 128.554 27.66 C 127.557 26.751 127.059 25.396 127.059 23.594 L 127.059 18.82 L 124.987 18.82 L 124.987 15.095 L 127.059 15.095 L 127.059 11.396 L 132.043 11.396 L 132.043 15.095 L 135.296 15.095 L 135.296 18.82 L 132.043 18.82 L 132.043 23.542 C 132.043 24.049 132.174 24.451 132.437 24.749 C 132.717 25.028 133.084 25.168 133.539 25.168 C 134.116 25.168 134.623 25.02 135.06 24.722 L 136.293 28.211 Z M 144.941 29.024 C 143.419 29.024 142.046 28.71 140.822 28.08 C 139.598 27.451 138.636 26.576 137.936 25.457 C 137.254 24.338 136.913 23.07 136.913 21.653 C 136.913 20.254 137.254 18.995 137.936 17.875 C 138.636 16.756 139.589 15.891 140.796 15.278 C 142.02 14.649 143.402 14.334 144.941 14.334 C 146.48 14.334 147.861 14.649 149.085 15.278 C 150.31 15.891 151.263 16.756 151.945 17.875 C 152.627 18.977 152.968 20.236 152.968 21.653 C 152.968 23.07 152.627 24.338 151.945 25.457 C 151.263 26.576 150.31 27.451 149.085 28.08 C 147.861 28.71 146.48 29.024 144.941 29.024 Z M 144.941 25.063 C 145.815 25.063 146.532 24.766 147.092 24.171 C 147.651 23.559 147.931 22.72 147.931 21.653 C 147.931 20.604 147.651 19.782 147.092 19.187 C 146.532 18.593 145.815 18.295 144.941 18.295 C 144.066 18.295 143.349 18.593 142.789 19.187 C 142.23 19.782 141.95 20.604 141.95 21.653 C 141.95 22.72 142.23 23.559 142.789 24.171 C 143.349 24.766 144.066 25.063 144.941 25.063 Z M 172.984 10.425 L 172.984 28.788 L 168.708 28.788 L 160.602 19.003 L 160.602 28.788 L 155.513 28.788 L 155.513 10.425 L 159.789 10.425 L 167.895 20.21 L 167.895 10.425 L 172.984 10.425 Z" style="fill: rgb(255, 255, 255);" id="object-0"/><path d="M 69.114 7.619 L 69.114 29.448 L 64.031 29.448 L 54.395 17.816 L 54.395 29.448 L 48.346 29.448 L 48.346 7.619 L 53.429 7.619 L 63.065 19.251 L 63.065 7.619 L 69.114 7.619 Z" style="fill: rgb(255, 255, 255);"/></svg>